<svg width="900" xmlns="http://www.w3.org/2000/svg" height="900" fill="none"><g data-testid="Board"><defs><clipPath id="a" class="frame-clip frame-clip-def"><rect rx="0" ry="0" width="900" height="900"/></clipPath></defs><g clip-path="url(#a)"><g class="fills"><rect width="900" height="900" class="frame-background" style="fill: rgb(255, 255, 255); fill-opacity: 0;" ry="0" rx="0" fill="none"/></g><g data-testid="Logo" class="frame-children"><g data-testid="Background"><rect rx="280" ry="280" width="900" height="900" style="fill: rgb(31, 31, 31); fill-opacity: 1;" class="fills"/><g class="strokes"><g class="inner-stroke-shape"><defs><clipPath id="c"><use href="#b"/></clipPath><rect rx="280" ry="280" x="0" y="0" width="900" height="900" id="b" style="fill: none; stroke-width: 180; stroke: rgb(24, 24, 24); stroke-opacity: 1;"/></defs><use href="#b" clip-path="url('#c')"/></g></g></g><g data-testid="Image" style="fill: rgb(0, 0, 0);"><path d="M530.468 315.116c-89.491-45.631-195.565-28.018-243.908 51.813-48.342 79.831-17.557 186.051 68.796 237.26 42.43 25.153 110.919 50.849 138.749 16.588 27.28-33.566-12.962-54.834-3.574-73.411 15.119-29.888 82.731 9.324 126.959-38.991 49.837-54.468.123-148.805-87.022-193.259Zm26.782 175.415c-23.288 0-40.031-16.989-40.031-40.031 0-23.042 16.743-40.031 40.031-40.031s40.031 16.989 40.031 40.031c0 23.042-16.743 40.031-40.031 40.031Z" style="fill: rgb(251, 184, 171);" class="fills" data-testid="svg-path"/><path d="M427.148 383.781c16.581 0 30.024-13.442 30.024-30.023 0-16.582-13.443-30.024-30.024-30.024-16.581 0-30.023 13.442-30.023 30.024 0 16.581 13.442 30.023 30.023 30.023Z" style="fill: rgb(141, 101, 197);" class="fills" data-testid="svg-path"/><path d="M347.086 437.156c16.581 0 30.023-13.442 30.023-30.023s-13.442-30.024-30.023-30.024c-16.582 0-30.023 13.443-30.023 30.024 0 16.581 13.441 30.023 30.023 30.023Z" style="fill: rgb(247, 10, 141);" class="fills" data-testid="svg-path"/><path d="M347.086 530.563c16.581 0 30.023-13.443 30.023-30.024 0-16.581-13.442-30.023-30.023-30.023-16.582 0-30.023 13.442-30.023 30.023s13.441 30.024 30.023 30.024Z" style="fill: rgb(0, 210, 106);" class="fills" data-testid="svg-path"/><path d="M420.477 590.609c16.581 0 30.023-13.442 30.023-30.023s-13.442-30.023-30.023-30.023-30.024 13.442-30.024 30.023 13.443 30.023 30.024 30.023Z" style="fill: rgb(63, 95, 255);" class="fills" data-testid="svg-path"/></g></g></g></g></svg>